<svg xmlns="http://www.w3.org/2000/svg" viewBox="0 30 920 170" width="100%" height="100%">
  <defs>
    <linearGradient id="escudoGradienteLight" x1="0%" y1="0%" x2="100%" y2="100%">
      <stop offset="0%" stop-color="#1e293b" />
      <stop offset="100%" stop-color="#0f172a" />
    </linearGradient>
    <radialGradient id="radarGlowLight" cx="50%" cy="50%" r="50%">
      <stop offset="0%" stop-color="#84CC16" stop-opacity="0.25"/>
      <stop offset="100%" stop-color="#84CC16" stop-opacity="0"/>
    </radialGradient>
  </defs>

  <g transform="translate(10, 0)">
    <g transform="translate(40, 45)">
      <path d="M10 20 L80 0 L150 20 C150 90 110 130 80 160 C50 130 10 90 10 20 Z" fill="url(#escudoGradienteLight)" stroke="#334155" stroke-width="2"/>

      <line x1="-30" y1="65" x2="60" y2="65" stroke="#84CC16" stroke-width="5" stroke-linecap="round"/>
      <line x1="-30" y1="80" x2="50" y2="80" stroke="#84CC16" stroke-width="5" stroke-linecap="round"/>
      <line x1="-30" y1="95" x2="62" y2="95" stroke="#84CC16" stroke-width="5" stroke-linecap="round"/>

      <line x1="100" y1="65" x2="190" y2="65" stroke="#84CC16" stroke-width="5" stroke-linecap="round"/>
      <line x1="110" y1="80" x2="190" y2="80" stroke="#84CC16" stroke-width="5" stroke-linecap="round"/>
      <line x1="98" y1="95" x2="190" y2="95" stroke="#84CC16" stroke-width="5" stroke-linecap="round"/>

      <circle cx="80" cy="80" r="25" fill="url(#radarGlowLight)"/>
      <circle cx="80" cy="80" r="16" fill="none" stroke="#84CC16" stroke-width="3"/>
      <circle cx="80" cy="80" r="3" fill="#84CC16"/>
      <line x1="80" y1="56" x2="80" y2="66" stroke="#84CC16" stroke-width="2.5"/>
      <line x1="80" y1="94" x2="80" y2="104" stroke="#84CC16" stroke-width="2.5"/>
      <line x1="56" y1="80" x2="66" y2="80" stroke="#84CC16" stroke-width="2.5"/>
      <line x1="94" y1="80" x2="104" y2="80" stroke="#84CC16" stroke-width="2.5"/>
    </g>

    <text x="270" y="130" font-family="Inter, Geist, SF Pro, sans-serif" font-size="76" font-weight="900" letter-spacing="-1">
      <tspan fill="#0C1528">NEXGUARD</tspan>
      <tspan fill="#84CC16" dx="2">360</tspan>
    </text>

    <text x="273" y="175" font-family="Inter, Geist, SF Pro, sans-serif" font-size="20" font-weight="400" fill="#64748B" letter-spacing="3.8">INTELIGENCIA OPERATIVA — SEGURIDAD 360</text>
  </g>
</svg>
